<svg xmlns="http://www.w3.org/2000/svg" xmlns:xlink="http://www.w3.org/1999/xlink" version="1.1" viewBox="0.0 0.0 960.0 540.0"
                        fill="none" stroke="none" stroke-linecap="square" stroke-miterlimit="10">
                        <clipPath id="p3.0">
                            <path d="m0 0l960.0 0l0 540.0l-960.0 0l0 -540.0z" clip-rule="nonzero"></path>
                        </clipPath>
                        <g clip-path="url(#p3.0)" id="p3">
                            <g>
                                <path fill="#ffffff" d="m0 0l960.0 0l0 540.0l-960.0 0l0 -540.0z" fill-rule="nonzero"></path>
                                <path fill="#ffffff" d="m0 0l960.0 0l0 540.0l-960.0 0z" fill-rule="evenodd"></path>
                                <path fill="#63bda2" d="m-1.0498687E-4 0l960.4232 0l0 539.99994l-960.4232 0z" fill-rule="evenodd"></path>
                                <path fill="#000000" fill-opacity="0.0" d="m297.84253 19.393911l367.8061 0l0 367.8061l-367.8061 0z"
                                    fill-rule="evenodd"></path>
                                <g transform="matrix(0.6130101561859211 0.0 0.0 0.6130101561859211 297.84251968503935 19.39391096620735)">
                                    <clipPath id="p3.1">
                                        <path d="m-5.684342E-14 7.1054274E-15l600.0 0l0 600.0l-600.0 0z" clip-rule="evenodd"></path>
                                    </clipPath>
                                    <defs>
                                        <filter id="p3.2" filterUnits="objectBoundingBox" primitiveUnits="objectBoundingBox"
                                            x="0%" y="0%" width="100%" height="100%">
                                            <feColorMatrix type="matrix" values="1.0 0.0 0.0 0.0 0.0 0.0 1.0 0.0 0.0 0.0 0.0 0.0 1.0 0.0 0.0 0.0 0.0 0.0 0.550000011920929 0.0"
                                                in="SourceGraphic" result="result-0" color-interpolation-filters="sRGB"></feColorMatrix>
                                        </filter>
                                    </defs>
                                    <image clip-path="url(#p3.1)" filter="url(#p3.2)" fill="#000" width="600.0" height="600.0"
                                        x="0.0" y="0.0" preserveAspectRatio="none" xlink:href="https://lh5.googleusercontent.com/iJC3wqArG_igKgYhOKMVWRNvCXmurRYB0yBxVBYZpzKklDH4P0WXqQMsSFvM9KsQ3iXuEVB0bw5UwTImE4PgwkAtGMI2kkCTW_W0qk_hILG-ygR6JRY_lmPzT2phSeb4tcDhqUNcyEI"></image>
                                </g>
                                <path fill="#000000" fill-opacity="0.0" d="m729.3836 242.2977l196.11646 34.757294l-15.691772 88.54013l-196.11646 -34.757294z"
                                    fill-rule="evenodd"></path>
                                <g transform="matrix(0.22135038200638738 0.039229443067015 -0.03922943806085061 0.22135034195707226 729.3836122047244 242.29769520997374)">
                                    <clipPath id="p3.3">
                                        <path d="m0 -5.684342E-14l886.0 1.1368684E-13l0 400.0l-886.0 0z" clip-rule="evenodd"></path>
                                    </clipPath>
                                    <defs>
                                        <filter id="p3.4" filterUnits="objectBoundingBox" primitiveUnits="objectBoundingBox"
                                            x="0%" y="0%" width="100%" height="100%">
                                            <feColorMatrix type="matrix" values="1.0 0.0 0.0 0.0 0.0 0.0 1.0 0.0 0.0 0.0 0.0 0.0 1.0 0.0 0.0 0.0 0.0 0.0 0.2800000011920929 0.0"
                                                in="SourceGraphic" result="result-0" color-interpolation-filters="sRGB"></feColorMatrix>
                                        </filter>
                                    </defs>
                                    <image clip-path="url(#p3.3)" filter="url(#p3.4)" fill="#000" width="886.0" height="400.0"
                                        x="0.0" y="0.0" preserveAspectRatio="none" xlink:href="https://lh6.googleusercontent.com/q3wQL28Nxpdi7q1_NEZuBhkhOvBul75AvS_kDjKsW6zSKgjKdbt-YubDK7xlpyIeFAhaGqfBg5oCFEHbEbum8JlFVFJU6qxzHBlqALfyaXKzEEttwa5BOoTESRlqT3v7Ee6HtZAAfoM"></image>
                                </g>
                                <path fill="#000000" fill-opacity="0.0" d="m14.7586355 98.574486l247.46667 0l0 111.72315l-247.46667 0z"
                                    fill-rule="evenodd"></path>
                                <g transform="matrix(0.27930774838905637 0.0 0.0 0.27930786853700174 14.75863527312992 98.57448531824147)">
                                    <clipPath id="p3.5">
                                        <path d="m0 0l886.0 0l0 400.0l-886.0 0z" clip-rule="evenodd"></path>
                                    </clipPath>
                                    <defs>
                                        <filter id="p3.6" filterUnits="objectBoundingBox" primitiveUnits="objectBoundingBox"
                                            x="0%" y="0%" width="100%" height="100%">
                                            <feColorMatrix type="matrix" values="1.0 0.0 0.0 0.0 0.0 0.0 1.0 0.0 0.0 0.0 0.0 0.0 1.0 0.0 0.0 0.0 0.0 0.0 0.2800000011920929 0.0"
                                                in="SourceGraphic" result="result-0" color-interpolation-filters="sRGB"></feColorMatrix>
                                        </filter>
                                    </defs>
                                    <image clip-path="url(#p3.5)" filter="url(#p3.6)" fill="#000" width="886.0" height="400.0"
                                        x="0.0" y="0.0" preserveAspectRatio="none" xlink:href="https://lh6.googleusercontent.com/q3wQL28Nxpdi7q1_NEZuBhkhOvBul75AvS_kDjKsW6zSKgjKdbt-YubDK7xlpyIeFAhaGqfBg5oCFEHbEbum8JlFVFJU6qxzHBlqALfyaXKzEEttwa5BOoTESRlqT3v7Ee6HtZAAfoM"></image>
                                </g>
                                <path fill="#000000" fill-opacity="0.0" d="m123.34829 272.1814l243.85925 20.798065l-9.389648 110.09448l-243.85925 -20.798065z"
                                    fill-rule="evenodd"></path>
                                <g transform="matrix(0.27523619484087924 0.023474125098681513 -0.023474127601763706 0.2752362348901944 123.34829191272966 272.1813894356955)">
                                    <clipPath id="p3.7">
                                        <path d="m0 0l886.0 2.2737368E-13l0 400.0l-886.0 0z" clip-rule="evenodd"></path>
                                    </clipPath>
                                    <defs>
                                        <filter id="p3.8" filterUnits="objectBoundingBox" primitiveUnits="objectBoundingBox"
                                            x="0%" y="0%" width="100%" height="100%">
                                            <feColorMatrix type="matrix" values="1.0 0.0 0.0 0.0 0.0 0.0 1.0 0.0 0.0 0.0 0.0 0.0 1.0 0.0 0.0 0.0 0.0 0.0 0.2800000011920929 0.0"
                                                in="SourceGraphic" result="result-0" color-interpolation-filters="sRGB"></feColorMatrix>
                                        </filter>
                                    </defs>
                                    <image clip-path="url(#p3.7)" filter="url(#p3.8)" fill="#000" width="886.0" height="400.0"
                                        x="0.0" y="0.0" preserveAspectRatio="none" xlink:href="https://lh6.googleusercontent.com/q3wQL28Nxpdi7q1_NEZuBhkhOvBul75AvS_kDjKsW6zSKgjKdbt-YubDK7xlpyIeFAhaGqfBg5oCFEHbEbum8JlFVFJU6qxzHBlqALfyaXKzEEttwa5BOoTESRlqT3v7Ee6HtZAAfoM"></image>
                                </g>
                                <path fill="#262626" d="m0 479.52145l959.99896 -75.23758c0.9524536 0.47613525 0 90.477356 0 135.716l-959.99896 0l0 -60.478424z"
                                    fill-rule="evenodd"></path>
                                <path fill="#000000" fill-opacity="0.0" d="m421.1536 469.9618l368.09323 0l0 28.434937l-368.09323 0z"
                                    fill-rule="evenodd"></path>
                                <path fill="#ffffff" d="m566.7231 483.40353q0 -0.953125 0.328125 -1.90625q0.34375 -0.953125 0.984375 -1.703125q0.65625 -0.75 1.59375 -1.21875q0.9375 -0.46875 2.140625 -0.46875q1.421875 0 2.421875 0.65625q1.015625 0.640625 1.5 1.65625l-0.625 0.359375q-0.28125 -0.546875 -0.671875 -0.921875q-0.375 -0.375 -0.828125 -0.609375q-0.4375 -0.234375 -0.921875 -0.328125q-0.46875 -0.109375 -0.9375 -0.109375q-1.015625 0 -1.796875 0.40625q-0.78125 0.40625 -1.328125 1.078125q-0.53125 0.65625 -0.8125 1.5q-0.28125 0.828125 -0.28125 1.65625q0 0.953125 0.328125 1.8125q0.328125 0.84375 0.890625 1.5q0.578125 0.65625 1.359375 1.046875q0.78125 0.390625 1.6875 0.390625q0.484375 0 0.984375 -0.125q0.515625 -0.125 0.96875 -0.375q0.46875 -0.25 0.875 -0.640625q0.40625 -0.40625 0.671875 -0.953125l0.671875 0.3125q-0.28125 0.609375 -0.75 1.078125q-0.453125 0.453125 -1.03125 0.78125q-0.5625 0.3125 -1.203125 0.46875q-0.640625 0.15625 -1.25 0.15625q-1.09375 0 -2.0 -0.484375q-0.90625 -0.484375 -1.578125 -1.25q-0.65625 -0.78125 -1.03125 -1.75q-0.359375 -0.984375 -0.359375 -2.015625zm13.100159 5.5625q-0.546875 0 -1.015625 -0.1875q-0.453125 -0.1875 -0.8125 -0.515625q-0.34375 -0.328125 -0.546875 -0.765625q-0.1875 -0.4375 -0.1875 -0.953125q0 -0.515625 0.234375 -0.921875q0.234375 -0.421875 0.65625 -0.734375q0.4375 -0.3125 1.03125 -0.484375q0.609375 -0.171875 1.328125 -0.171875q0.625 0 1.265625 0.125q0.640625 0.109375 1.140625 0.296875l0 -0.765625q0 -1.109375 -0.625 -1.75q-0.625 -0.65625 -1.703125 -0.65625q-0.578125 0 -1.21875 0.234375q-0.625 0.234375 -1.296875 0.6875l-0.28125 -0.515625q1.5 -1.015625 2.859375 -1.015625q1.40625 0 2.203125 0.828125q0.8125 0.8125 0.8125 2.25l0 3.8125q0 0.375 0.34375 0.375l0 0.671875q-0.078125 0.015625 -0.171875 0.015625q-0.078125 0.015625 -0.140625 0.015625q-0.296875 0 -0.484375 -0.203125q-0.171875 -0.203125 -0.203125 -0.484375l0 -0.65625q-0.53125 0.71875 -1.375 1.09375q-0.84375 0.375 -1.8125 0.375zm0.140625 -0.609375q0.875 0 1.59375 -0.328125q0.734375 -0.328125 1.125 -0.875q0.234375 -0.3125 0.234375 -0.59375l0 -1.375q-0.53125 -0.21875 -1.125 -0.3125q-0.578125 -0.109375 -1.203125 -0.109375q-0.59375 0 -1.078125 0.125q-0.46875 0.125 -0.8125 0.359375q-0.34375 0.21875 -0.53125 0.546875q-0.1875 0.3125 -0.1875 0.703125q0 0.390625 0.140625 0.734375q0.15625 0.34375 0.421875 0.59375q0.265625 0.25 0.625 0.390625q0.375 0.140625 0.796875 0.140625zm9.876465 0.609375q-0.90625 0 -1.703125 -0.484375q-0.796875 -0.484375 -1.25 -1.234375l0 1.5625l-0.6875 0l0 -10.953125l0.75 0l0 4.84375q0.546875 -0.8125 1.296875 -1.3125q0.765625 -0.515625 1.765625 -0.515625q0.828125 0 1.484375 0.359375q0.671875 0.34375 1.125 0.921875q0.46875 0.578125 0.703125 1.3125q0.25 0.71875 0.25 1.46875q0 0.8125 -0.28125 1.546875q-0.28125 0.71875 -0.796875 1.265625q-0.5 0.546875 -1.1875 0.890625q-0.671875 0.328125 -1.46875 0.328125zm-0.140625 -0.6875q0.6875 0 1.25 -0.28125q0.578125 -0.28125 0.984375 -0.75q0.40625 -0.484375 0.640625 -1.078125q0.234375 -0.59375 0.234375 -1.234375q0 -0.65625 -0.21875 -1.265625q-0.21875 -0.609375 -0.609375 -1.078125q-0.390625 -0.46875 -0.953125 -0.75q-0.546875 -0.296875 -1.203125 -0.296875q-0.484375 0 -0.921875 0.171875q-0.4375 0.171875 -0.8125 0.46875q-0.359375 0.28125 -0.65625 0.65625q-0.296875 0.375 -0.484375 0.78125l0 2.578125q0.046875 0.4375 0.328125 0.828125q0.28125 0.375 0.671875 0.65625q0.40625 0.265625 0.875 0.4375q0.46875 0.15625 0.875 0.15625zm5.9572754 0.53125l0 -7.796875l0.75 0l0 7.796875l-0.75 0zm0 -9.5625l0 -1.390625l0.75 0l0 1.390625l-0.75 0zm9.5737915 9.5625l-0.75 0l0 -4.34375q0 -1.515625 -0.4375 -2.203125q-0.421875 -0.703125 -1.34375 -0.703125q-0.5 0 -0.984375 0.1875q-0.484375 0.171875 -0.90625 0.515625q-0.421875 0.328125 -0.75 0.765625q-0.3125 0.4375 -0.453125 0.953125l0 4.828125l-0.75 0l0 -7.796875l0.703125 0l0 1.859375q0.234375 -0.453125 0.578125 -0.8125q0.359375 -0.375 0.796875 -0.640625q0.453125 -0.265625 0.9375 -0.40625q0.5 -0.140625 1.03125 -0.140625q1.28125 0 1.796875 0.890625q0.53125 0.890625 0.53125 2.5625l0 4.484375zm5.838501 0.15625q-0.828125 0 -1.53125 -0.328125q-0.703125 -0.328125 -1.21875 -0.890625q-0.515625 -0.5625 -0.8125 -1.296875q-0.296875 -0.734375 -0.296875 -1.578125q0 -0.8125 0.296875 -1.53125q0.296875 -0.734375 0.796875 -1.28125q0.515625 -0.5625 1.203125 -0.875q0.703125 -0.3125 1.515625 -0.3125q0.828125 0 1.53125 0.328125q0.703125 0.3125 1.203125 0.875q0.515625 0.546875 0.796875 1.28125q0.296875 0.71875 0.296875 1.515625q0 0.078125 0 0.203125q0 0.109375 -0.015625 0.140625l-6.84375 0q0.046875 0.671875 0.3125 1.25q0.28125 0.578125 0.6875 1.0q0.40625 0.40625 0.953125 0.65625q0.546875 0.234375 1.15625 0.234375q0.40625 0 0.796875 -0.109375q0.390625 -0.109375 0.71875 -0.296875q0.34375 -0.203125 0.609375 -0.484375q0.265625 -0.28125 0.40625 -0.609375l0.65625 0.1875q-0.15625 0.421875 -0.484375 0.78125q-0.3125 0.34375 -0.75 0.59375q-0.421875 0.25 -0.9375 0.390625q-0.5 0.15625 -1.046875 0.15625zm3.0625 -4.359375q-0.046875 -0.6875 -0.3125 -1.25q-0.265625 -0.578125 -0.671875 -0.984375q-0.40625 -0.421875 -0.953125 -0.640625q-0.546875 -0.234375 -1.15625 -0.234375q-0.609375 0 -1.15625 0.234375q-0.53125 0.21875 -0.953125 0.640625q-0.40625 0.40625 -0.65625 0.984375q-0.25 0.578125 -0.296875 1.25l6.15625 0zm6.1185303 3.828125q-0.0625 0.03125 -0.203125 0.109375q-0.140625 0.078125 -0.359375 0.15625q-0.21875 0.078125 -0.5 0.140625q-0.265625 0.0625 -0.578125 0.0625q-0.3125 0 -0.59375 -0.09375q-0.28125 -0.09375 -0.5 -0.265625q-0.203125 -0.1875 -0.328125 -0.4375q-0.109375 -0.25 -0.109375 -0.609375l0 -5.875l-1.09375 0l0 -0.609375l1.09375 0l0 -2.671875l0.75 0l0 2.671875l1.8125 0l0 0.609375l-1.8125 0l0 5.703125q0 0.4375 0.296875 0.65625q0.296875 0.21875 0.671875 0.21875q0.46875 0 0.796875 -0.15625q0.34375 -0.171875 0.421875 -0.203125l0.234375 0.59375zm8.635193 0.53125q-0.8125 0 -1.5 -0.34375q-0.6875 -0.34375 -1.1875 -0.90625q-0.5 -0.5625 -0.78125 -1.28125q-0.28125 -0.734375 -0.28125 -1.515625q0 -0.796875 0.265625 -1.53125q0.28125 -0.75 0.75 -1.296875q0.484375 -0.5625 1.140625 -0.890625q0.65625 -0.328125 1.4375 -0.328125q0.5 0 0.953125 0.15625q0.453125 0.140625 0.84375 0.390625q0.390625 0.25 0.703125 0.578125q0.3125 0.328125 0.546875 0.703125l0 -4.84375l0.75 0l0 9.90625q0 0.375 0.3125 0.375l0 0.671875q-0.09375 0.015625 -0.15625 0.015625q-0.0625 0.015625 -0.109375 0.015625q-0.3125 0 -0.53125 -0.234375q-0.203125 -0.234375 -0.203125 -0.484375l0 -0.875q-0.46875 0.78125 -1.28125 1.25q-0.796875 0.46875 -1.671875 0.46875zm0.140625 -0.6875q0.40625 0 0.859375 -0.15625q0.46875 -0.171875 0.859375 -0.453125q0.40625 -0.296875 0.6875 -0.671875q0.296875 -0.375 0.34375 -0.8125l0 -2.5625q-0.171875 -0.421875 -0.484375 -0.796875q-0.296875 -0.390625 -0.6875 -0.671875q-0.390625 -0.28125 -0.84375 -0.4375q-0.453125 -0.171875 -0.875 -0.171875q-0.671875 0 -1.234375 0.296875q-0.546875 0.296875 -0.9375 0.765625q-0.390625 0.46875 -0.609375 1.078125q-0.203125 0.609375 -0.203125 1.25q0 0.6875 0.234375 1.28125q0.25 0.59375 0.671875 1.0625q0.4375 0.46875 1.0 0.734375q0.5625 0.265625 1.21875 0.265625zm9.472412 0.6875q-0.828125 0 -1.53125 -0.328125q-0.703125 -0.328125 -1.21875 -0.890625q-0.515625 -0.5625 -0.8125 -1.296875q-0.296875 -0.734375 -0.296875 -1.578125q0 -0.8125 0.296875 -1.53125q0.296875 -0.734375 0.796875 -1.28125q0.515625 -0.5625 1.203125 -0.875q0.703125 -0.3125 1.515625 -0.3125q0.828125 0 1.53125 0.328125q0.703125 0.3125 1.203125 0.875q0.515625 0.546875 0.796875 1.28125q0.296875 0.71875 0.296875 1.515625q0 0.078125 0 0.203125q0 0.109375 -0.015625 0.140625l-6.84375 0q0.046875 0.671875 0.3125 1.25q0.28125 0.578125 0.6875 1.0q0.40625 0.40625 0.953125 0.65625q0.546875 0.234375 1.15625 0.234375q0.40625 0 0.796875 -0.109375q0.390625 -0.109375 0.71875 -0.296875q0.34375 -0.203125 0.609375 -0.484375q0.265625 -0.28125 0.40625 -0.609375l0.65625 0.1875q-0.15625 0.421875 -0.484375 0.78125q-0.3125 0.34375 -0.75 0.59375q-0.421875 0.25 -0.9375 0.390625q-0.5 0.15625 -1.046875 0.15625zm3.0625 -4.359375q-0.046875 -0.6875 -0.3125 -1.25q-0.265625 -0.578125 -0.671875 -0.984375q-0.40625 -0.421875 -0.953125 -0.640625q-0.546875 -0.234375 -1.15625 -0.234375q-0.609375 0 -1.15625 0.234375q-0.53125 0.21875 -0.953125 0.640625q-0.40625 0.40625 -0.65625 0.984375q-0.25 0.578125 -0.296875 1.25l6.15625 0zm6.058716 0.265625q0 -0.8125 0.28125 -1.546875q0.296875 -0.734375 0.796875 -1.28125q0.515625 -0.546875 1.21875 -0.859375q0.703125 -0.3125 1.546875 -0.3125q1.0625 0 1.875 0.484375q0.8125 0.484375 1.21875 1.328125l-0.734375 0.25q-0.34375 -0.65625 -0.984375 -1.015625q-0.640625 -0.375 -1.40625 -0.375q-0.640625 0 -1.203125 0.265625q-0.546875 0.25 -0.96875 0.703125q-0.40625 0.453125 -0.65625 1.0625q-0.234375 0.59375 -0.234375 1.296875q0 0.71875 0.25 1.34375q0.25 0.609375 0.65625 1.078125q0.421875 0.453125 0.984375 0.71875q0.5625 0.265625 1.1875 0.265625q0.40625 0 0.796875 -0.109375q0.40625 -0.125 0.734375 -0.3125q0.34375 -0.203125 0.59375 -0.46875q0.25 -0.265625 0.34375 -0.546875l0.734375 0.21875q-0.15625 0.40625 -0.46875 0.765625q-0.296875 0.34375 -0.71875 0.59375q-0.421875 0.25 -0.9375 0.390625q-0.5 0.15625 -1.046875 0.15625q-0.828125 0 -1.53125 -0.328125q-0.703125 -0.328125 -1.21875 -0.890625q-0.515625 -0.5625 -0.8125 -1.296875q-0.296875 -0.734375 -0.296875 -1.578125zm12.234436 4.09375q-0.828125 0 -1.53125 -0.328125q-0.6875 -0.328125 -1.203125 -0.875q-0.5 -0.5625 -0.796875 -1.296875q-0.28125 -0.734375 -0.28125 -1.546875q0 -0.8125 0.296875 -1.546875q0.296875 -0.75 0.796875 -1.296875q0.515625 -0.5625 1.203125 -0.875q0.703125 -0.328125 1.515625 -0.328125q0.8125 0 1.5 0.328125q0.6875 0.3125 1.203125 0.875q0.53125 0.546875 0.8125 1.296875q0.296875 0.734375 0.296875 1.546875q0 0.8125 -0.296875 1.546875q-0.28125 0.734375 -0.796875 1.296875q-0.515625 0.546875 -1.21875 0.875q-0.6875 0.328125 -1.5 0.328125zm-3.0625 -4.015625q0 0.6875 0.234375 1.296875q0.25 0.609375 0.65625 1.0625q0.421875 0.453125 0.96875 0.71875q0.5625 0.25 1.1875 0.25q0.640625 0 1.1875 -0.25q0.5625 -0.265625 0.96875 -0.734375q0.421875 -0.46875 0.65625 -1.0625q0.25 -0.609375 0.25 -1.328125q0 -0.6875 -0.25 -1.296875q-0.234375 -0.609375 -0.65625 -1.0625q-0.40625 -0.453125 -0.96875 -0.71875q-0.546875 -0.28125 -1.171875 -0.28125q-0.625 0 -1.1875 0.28125q-0.546875 0.265625 -0.96875 0.734375q-0.40625 0.453125 -0.65625 1.078125q-0.25 0.625 -0.25 1.3125zm15.320129 3.859375l-0.75 0l0 -4.34375q0 -1.515625 -0.4375 -2.203125q-0.421875 -0.703125 -1.34375 -0.703125q-0.5 0 -0.984375 0.1875q-0.484375 0.171875 -0.90625 0.515625q-0.421875 0.328125 -0.75 0.765625q-0.3125 0.4375 -0.453125 0.953125l0 4.828125l-0.75 0l0 -7.796875l0.703125 0l0 1.859375q0.234375 -0.453125 0.578125 -0.8125q0.359375 -0.375 0.796875 -0.640625q0.453125 -0.265625 0.9375 -0.40625q0.5 -0.140625 1.03125 -0.140625q1.28125 0 1.796875 0.890625q0.53125 0.890625 0.53125 2.5625l0 4.484375zm4.99469 0.15625q-0.890625 0 -1.71875 -0.296875q-0.828125 -0.3125 -1.4375 -0.90625l0.375 -0.515625q0.625 0.578125 1.296875 0.84375q0.671875 0.265625 1.484375 0.265625q1.03125 0 1.640625 -0.421875q0.625 -0.4375 0.625 -1.1875q0 -0.375 -0.15625 -0.609375q-0.15625 -0.25 -0.46875 -0.421875q-0.3125 -0.171875 -0.78125 -0.3125q-0.46875 -0.140625 -1.078125 -0.28125q-0.65625 -0.15625 -1.15625 -0.296875q-0.484375 -0.15625 -0.796875 -0.359375q-0.3125 -0.21875 -0.46875 -0.515625q-0.15625 -0.296875 -0.15625 -0.765625q0 -0.578125 0.21875 -1.015625q0.234375 -0.4375 0.625 -0.71875q0.390625 -0.296875 0.90625 -0.4375q0.53125 -0.140625 1.109375 -0.140625q0.921875 0 1.625 0.3125q0.703125 0.3125 1.09375 0.78125l-0.421875 0.40625q-0.390625 -0.453125 -1.015625 -0.671875q-0.625 -0.21875 -1.328125 -0.21875q-0.4375 0 -0.828125 0.09375q-0.375 0.078125 -0.65625 0.28125q-0.28125 0.1875 -0.453125 0.5q-0.15625 0.296875 -0.15625 0.71875q0 0.34375 0.109375 0.5625q0.109375 0.203125 0.359375 0.359375q0.25 0.140625 0.640625 0.265625q0.390625 0.109375 0.921875 0.234375q0.734375 0.1875 1.296875 0.359375q0.578125 0.15625 0.953125 0.40625q0.390625 0.234375 0.59375 0.5625q0.203125 0.328125 0.203125 0.84375q0 1.046875 -0.8125 1.671875q-0.8125 0.625 -2.1875 0.625zm8.276672 0q-0.828125 0 -1.53125 -0.328125q-0.703125 -0.328125 -1.21875 -0.890625q-0.515625 -0.5625 -0.8125 -1.296875q-0.296875 -0.734375 -0.296875 -1.578125q0 -0.8125 0.296875 -1.53125q0.296875 -0.734375 0.796875 -1.28125q0.515625 -0.5625 1.203125 -0.875q0.703125 -0.3125 1.515625 -0.3125q0.828125 0 1.53125 0.328125q0.703125 0.3125 1.203125 0.875q0.515625 0.546875 0.796875 1.28125q0.296875 0.71875 0.296875 1.515625q0 0.078125 0 0.203125q0 0.109375 -0.015625 0.140625l-6.84375 0q0.046875 0.671875 0.3125 1.25q0.28125 0.578125 0.6875 1.0q0.40625 0.40625 0.953125 0.65625q0.546875 0.234375 1.15625 0.234375q0.40625 0 0.796875 -0.109375q0.390625 -0.109375 0.71875 -0.296875q0.34375 -0.203125 0.609375 -0.484375q0.265625 -0.28125 0.40625 -0.609375l0.65625 0.1875q-0.15625 0.421875 -0.484375 0.78125q-0.3125 0.34375 -0.75 0.59375q-0.421875 0.25 -0.9375 0.390625q-0.5 0.15625 -1.046875 0.15625zm3.0625 -4.359375q-0.046875 -0.6875 -0.3125 -1.25q-0.265625 -0.578125 -0.671875 -0.984375q-0.40625 -0.421875 -0.953125 -0.640625q-0.546875 -0.234375 -1.15625 -0.234375q-0.609375 0 -1.15625 0.234375q-0.53125 0.21875 -0.953125 0.640625q-0.40625 0.40625 -0.65625 0.984375q-0.25 0.578125 -0.296875 1.25l6.15625 0zm2.6341553 4.203125l0 -7.796875l0.75 0l0 7.796875l-0.75 0zm0 -9.5625l0 -1.390625l0.75 0l0 1.390625l-0.75 0zm3.2612915 -1.390625l0.765625 0l0 9.40625q0 0.4375 0.234375 0.703125q0.25 0.25 0.6875 0.25q0.171875 0 0.40625 -0.03125q0.234375 -0.046875 0.421875 -0.125l0.15625 0.59375q-0.265625 0.109375 -0.640625 0.171875q-0.375 0.078125 -0.640625 0.078125q-0.625 0 -1.015625 -0.375q-0.375 -0.390625 -0.375 -1.03125l0 -9.640625zm8.130066 10.953125l0 -10.65625l0.765625 0l0 10.65625l-0.765625 0zm11.099915 -9.953125l-3.890625 0l0 9.953125l-0.765625 0l0 -9.953125l-3.90625 0l0 -0.703125l8.5625 0l0 0.703125zm8.992249 10.109375q-0.828125 0 -1.53125 -0.328125q-0.703125 -0.328125 -1.21875 -0.890625q-0.515625 -0.5625 -0.8125 -1.296875q-0.296875 -0.734375 -0.296875 -1.578125q0 -0.8125 0.296875 -1.53125q0.296875 -0.734375 0.796875 -1.28125q0.515625 -0.5625 1.203125 -0.875q0.703125 -0.3125 1.515625 -0.3125q0.828125 0 1.53125 0.328125q0.703125 0.3125 1.203125 0.875q0.515625 0.546875 0.796875 1.28125q0.296875 0.71875 0.296875 1.515625q0 0.078125 0 0.203125q0 0.109375 -0.015625 0.140625l-6.84375 0q0.046875 0.671875 0.3125 1.25q0.28125 0.578125 0.6875 1.0q0.40625 0.40625 0.953125 0.65625q0.546875 0.234375 1.15625 0.234375q0.40625 0 0.796875 -0.109375q0.390625 -0.109375 0.71875 -0.296875q0.34375 -0.203125 0.609375 -0.484375q0.265625 -0.28125 0.40625 -0.609375l0.65625 0.1875q-0.15625 0.421875 -0.484375 0.78125q-0.3125 0.34375 -0.75 0.59375q-0.421875 0.25 -0.9375 0.390625q-0.5 0.15625 -1.046875 0.15625zm3.0625 -4.359375q-0.046875 -0.6875 -0.3125 -1.25q-0.265625 -0.578125 -0.671875 -0.984375q-0.40625 -0.421875 -0.953125 -0.640625q-0.546875 -0.234375 -1.15625 -0.234375q-0.609375 0 -1.15625 0.234375q-0.53125 0.21875 -0.953125 0.640625q-0.40625 0.40625 -0.65625 0.984375q-0.25 0.578125 -0.296875 1.25l6.15625 0zm6.1185303 3.828125q-0.0625 0.03125 -0.203125 0.109375q-0.140625 0.078125 -0.359375 0.15625q-0.21875 0.078125 -0.5 0.140625q-0.265625 0.0625 -0.578125 0.0625q-0.3125 0 -0.59375 -0.09375q-0.28125 -0.09375 -0.5 -0.265625q-0.203125 -0.1875 -0.328125 -0.4375q-0.109375 -0.25 -0.109375 -0.609375l0 -5.875l-1.09375 0l0 -0.609375l1.09375 0l0 -2.671875l0.75 0l0 2.671875l1.8125 0l0 0.609375l-1.8125 0l0 5.703125q0 0.4375 0.296875 0.65625q0.296875 0.21875 0.671875 0.21875q0.46875 0 0.796875 -0.15625q0.34375 -0.171875 0.421875 -0.203125l0.234375 0.59375zm8.994568 -10.28125l0.671875 0l4.5 10.65625l-0.8125 0l-1.484375 -3.515625l-5.09375 0l-1.484375 3.515625l-0.828125 0l4.53125 -10.65625zm2.65625 6.515625l-2.328125 -5.578125l-2.359375 5.578125l4.6875 0zm7.352722 4.265625q-0.796875 0 -1.484375 -0.34375q-0.671875 -0.34375 -1.15625 -0.90625q-0.484375 -0.5625 -0.765625 -1.28125q-0.28125 -0.71875 -0.28125 -1.484375q0 -0.796875 0.265625 -1.53125q0.265625 -0.734375 0.734375 -1.296875q0.484375 -0.5625 1.15625 -0.890625q0.671875 -0.328125 1.484375 -0.328125q1.015625 0 1.765625 0.53125q0.765625 0.53125 1.28125 1.296875l0 -1.6875l0.703125 0l0 7.953125q0 0.78125 -0.3125 1.375q-0.296875 0.609375 -0.796875 1.0q-0.5 0.40625 -1.171875 0.609375q-0.671875 0.203125 -1.40625 0.203125q-0.671875 0 -1.21875 -0.125q-0.53125 -0.125 -0.953125 -0.359375q-0.40625 -0.234375 -0.734375 -0.578125q-0.3125 -0.328125 -0.546875 -0.734375l0.5 -0.34375q0.46875 0.796875 1.265625 1.15625q0.796875 0.375 1.6875 0.375q0.609375 0 1.140625 -0.171875q0.53125 -0.15625 0.921875 -0.484375q0.40625 -0.328125 0.640625 -0.8125q0.234375 -0.46875 0.234375 -1.109375l0 -1.71875q-0.484375 0.765625 -1.28125 1.234375q-0.796875 0.453125 -1.671875 0.453125zm0.1875 -0.65625q0.5 0 0.96875 -0.1875q0.46875 -0.1875 0.84375 -0.484375q0.390625 -0.296875 0.640625 -0.671875q0.25 -0.375 0.3125 -0.75l0 -2.5625q-0.1875 -0.453125 -0.484375 -0.828125q-0.296875 -0.390625 -0.6875 -0.65625q-0.375 -0.265625 -0.828125 -0.421875q-0.4375 -0.171875 -0.890625 -0.171875q-0.703125 0 -1.265625 0.3125q-0.546875 0.296875 -0.9375 0.78125q-0.375 0.46875 -0.578125 1.078125q-0.203125 0.609375 -0.203125 1.21875q0 0.6875 0.234375 1.28125q0.25 0.59375 0.671875 1.0625q0.421875 0.46875 0.984375 0.734375q0.578125 0.265625 1.21875 0.265625zm6.1291504 0.53125l0 -7.796875l0.75 0l0 7.796875l-0.75 0zm0 -9.5625l0 -1.390625l0.75 0l0 1.390625l-0.75 0zm3.2612915 -1.390625l0.765625 0l0 9.40625q0 0.4375 0.234375 0.703125q0.25 0.25 0.6875 0.25q0.171875 0 0.40625 -0.03125q0.234375 -0.046875 0.421875 -0.125l0.15625 0.59375q-0.265625 0.109375 -0.640625 0.171875q-0.375 0.078125 -0.640625 0.078125q-0.625 0 -1.015625 -0.375q-0.375 -0.390625 -0.375 -1.03125l0 -9.640625zm3.9398804 10.953125l0 -7.796875l0.75 0l0 7.796875l-0.75 0zm0 -9.5625l0 -1.390625l0.75 0l0 1.390625l-0.75 0zm6.6831665 9.1875q-0.0625 0.03125 -0.203125 0.109375q-0.140625 0.078125 -0.359375 0.15625q-0.21875 0.078125 -0.5 0.140625q-0.265625 0.0625 -0.578125 0.0625q-0.3125 0 -0.59375 -0.09375q-0.28125 -0.09375 -0.5 -0.265625q-0.203125 -0.1875 -0.328125 -0.4375q-0.109375 -0.25 -0.109375 -0.609375l0 -5.875l-1.09375 0l0 -0.609375l1.09375 0l0 -2.671875l0.75 0l0 2.671875l1.8125 0l0 0.609375l-1.8125 0l0 5.703125q0 0.4375 0.296875 0.65625q0.296875 0.21875 0.671875 0.21875q0.46875 0 0.796875 -0.15625q0.34375 -0.171875 0.421875 -0.203125l0.234375 0.59375zm4.6950073 -9.0625l-0.515625 -0.234375l0.90625 -1.28125l0.875 0l-1.265625 1.515625zm0.078125 9.59375q-0.828125 0 -1.53125 -0.328125q-0.703125 -0.328125 -1.21875 -0.890625q-0.515625 -0.5625 -0.8125 -1.296875q-0.296875 -0.734375 -0.296875 -1.578125q0 -0.8125 0.296875 -1.53125q0.296875 -0.734375 0.796875 -1.28125q0.515625 -0.5625 1.203125 -0.875q0.703125 -0.3125 1.515625 -0.3125q0.828125 0 1.53125 0.328125q0.703125 0.3125 1.203125 0.875q0.515625 0.546875 0.796875 1.28125q0.296875 0.71875 0.296875 1.515625q0 0.078125 0 0.203125q0 0.109375 -0.015625 0.140625l-6.84375 0q0.046875 0.671875 0.3125 1.25q0.28125 0.578125 0.6875 1.0q0.40625 0.40625 0.953125 0.65625q0.546875 0.234375 1.15625 0.234375q0.40625 0 0.796875 -0.109375q0.390625 -0.109375 0.71875 -0.296875q0.34375 -0.203125 0.609375 -0.484375q0.265625 -0.28125 0.40625 -0.609375l0.65625 0.1875q-0.15625 0.421875 -0.484375 0.78125q-0.3125 0.34375 -0.75 0.59375q-0.421875 0.25 -0.9375 0.390625q-0.5 0.15625 -1.046875 0.15625zm3.0625 -4.359375q-0.046875 -0.6875 -0.3125 -1.25q-0.265625 -0.578125 -0.671875 -0.984375q-0.40625 -0.421875 -0.953125 -0.640625q-0.546875 -0.234375 -1.15625 -0.234375q-0.609375 0 -1.15625 0.234375q-0.53125 0.21875 -0.953125 0.640625q-0.40625 0.40625 -0.65625 0.984375q-0.25 0.578125 -0.296875 1.25l6.15625 0z"
                                    fill-rule="nonzero"></path>
                                <path fill="#000000" fill-opacity="0.0" d="m816.1921 471.48044l-6.1035156E-5 23.573334"
                                    fill-rule="evenodd"></path>
                                <path stroke="#63bda2" stroke-width="1.0" stroke-linejoin="round" stroke-linecap="butt"
                                    d="m816.1921 471.48044l-6.1035156E-5 23.573334" fill-rule="evenodd"></path>
                                <path fill="#000000" fill-opacity="0.0" d="m834.5198 463.15823l92.58594 0l0 54.382355l-92.58594 0z"
                                    fill-rule="evenodd"></path>
                                <g transform="matrix(0.13595585059619011 0.0 0.0 0.135955900657834 834.5197670603675 463.158218503937)">
                                    <clipPath id="p3.9">
                                        <path d="m-9.094947E-13 0l681.0 0l0 400.0l-681.0 0z" clip-rule="evenodd"></path>
                                    </clipPath>
                                    <image clip-path="url(#p3.9)" fill="#000" width="681.0" height="400.0" x="0.0" y="0.0"
                                        preserveAspectRatio="none" xlink:href="https://lh5.googleusercontent.com/MEuHUUKKY0EaG5003B8JndKJSgWLWJkIHBkn0SEsbOZ1mncHRCGkBmsRiIyIyNZpNnsY8lYQM0BToXmm5Y2N8khNOKMWWYqxCQ-sUcT_Gu4gUaxd8FomhLnMAspRTHiQYILIG52T51E"></image>
                                </g>
                                <path fill="#000000" fill-opacity="0.0" d="m43.260895 131.09764l876.8334 0l0 150.22426l-876.8334 0z"
                                    fill-rule="evenodd"></path>
                            </g>
                        </g>
                    </svg>